<mxfile host="Electron" modified="2024-01-08T07:05:25.618Z" agent="Mozilla/5.0 (Windows NT 10.0; Win64; x64) AppleWebKit/537.36 (KHTML, like Gecko) draw.io/22.1.16 Chrome/120.0.6099.109 Electron/28.1.0 Safari/537.36" etag="dObRxoTSr4ar4TPBAn5l" version="22.1.16" type="device">
  <diagram name="Page-1" id="Umb1S6DrYRTSFSJQdrjl">
    <mxGraphModel dx="558" dy="383" grid="1" gridSize="10" guides="1" tooltips="1" connect="1" arrows="1" fold="1" page="1" pageScale="1" pageWidth="850" pageHeight="1100" math="0" shadow="0">
      <root>
        <mxCell id="0" />
        <mxCell id="1" parent="0" />
        <mxCell id="uPSDg4g8-I4lnqD0Hp03-27" style="edgeStyle=orthogonalEdgeStyle;rounded=0;orthogonalLoop=1;jettySize=auto;html=1;" edge="1" parent="1" source="uPSDg4g8-I4lnqD0Hp03-20" target="uPSDg4g8-I4lnqD0Hp03-23">
          <mxGeometry relative="1" as="geometry">
            <Array as="points">
              <mxPoint x="190" y="140" />
              <mxPoint x="190" y="130" />
            </Array>
          </mxGeometry>
        </mxCell>
        <mxCell id="uPSDg4g8-I4lnqD0Hp03-28" style="edgeStyle=orthogonalEdgeStyle;rounded=0;orthogonalLoop=1;jettySize=auto;html=1;" edge="1" parent="1" source="uPSDg4g8-I4lnqD0Hp03-20" target="uPSDg4g8-I4lnqD0Hp03-21">
          <mxGeometry relative="1" as="geometry" />
        </mxCell>
        <mxCell id="uPSDg4g8-I4lnqD0Hp03-36" style="edgeStyle=orthogonalEdgeStyle;rounded=0;orthogonalLoop=1;jettySize=auto;html=1;" edge="1" parent="1" source="uPSDg4g8-I4lnqD0Hp03-20" target="uPSDg4g8-I4lnqD0Hp03-35">
          <mxGeometry relative="1" as="geometry">
            <Array as="points">
              <mxPoint x="190" y="140" />
              <mxPoint x="190" y="150" />
            </Array>
          </mxGeometry>
        </mxCell>
        <mxCell id="uPSDg4g8-I4lnqD0Hp03-20" value="&lt;pre&gt;.h&lt;/pre&gt;" style="rounded=0;whiteSpace=wrap;html=1;fillColor=#fad7ac;strokeColor=#b46504;" vertex="1" parent="1">
          <mxGeometry x="200" y="130" width="80" height="20" as="geometry" />
        </mxCell>
        <mxCell id="uPSDg4g8-I4lnqD0Hp03-29" style="edgeStyle=orthogonalEdgeStyle;rounded=0;orthogonalLoop=1;jettySize=auto;html=1;" edge="1" parent="1" source="uPSDg4g8-I4lnqD0Hp03-21" target="uPSDg4g8-I4lnqD0Hp03-24">
          <mxGeometry relative="1" as="geometry" />
        </mxCell>
        <mxCell id="uPSDg4g8-I4lnqD0Hp03-30" style="edgeStyle=orthogonalEdgeStyle;rounded=0;orthogonalLoop=1;jettySize=auto;html=1;" edge="1" parent="1" source="uPSDg4g8-I4lnqD0Hp03-21" target="uPSDg4g8-I4lnqD0Hp03-22">
          <mxGeometry relative="1" as="geometry" />
        </mxCell>
        <mxCell id="uPSDg4g8-I4lnqD0Hp03-21" value="&lt;pre&gt;.h&lt;/pre&gt;" style="rounded=0;whiteSpace=wrap;html=1;fillColor=#fad7ac;strokeColor=#b46504;" vertex="1" parent="1">
          <mxGeometry x="200" y="190" width="80" height="20" as="geometry" />
        </mxCell>
        <mxCell id="uPSDg4g8-I4lnqD0Hp03-31" style="edgeStyle=orthogonalEdgeStyle;rounded=0;orthogonalLoop=1;jettySize=auto;html=1;" edge="1" parent="1" source="uPSDg4g8-I4lnqD0Hp03-22" target="uPSDg4g8-I4lnqD0Hp03-25">
          <mxGeometry relative="1" as="geometry">
            <Array as="points">
              <mxPoint x="190" y="260" />
              <mxPoint x="190" y="240" />
            </Array>
          </mxGeometry>
        </mxCell>
        <mxCell id="uPSDg4g8-I4lnqD0Hp03-32" style="edgeStyle=orthogonalEdgeStyle;rounded=0;orthogonalLoop=1;jettySize=auto;html=1;" edge="1" parent="1" source="uPSDg4g8-I4lnqD0Hp03-22" target="uPSDg4g8-I4lnqD0Hp03-26">
          <mxGeometry relative="1" as="geometry">
            <Array as="points">
              <mxPoint x="300" y="260" />
              <mxPoint x="300" y="290" />
            </Array>
          </mxGeometry>
        </mxCell>
        <mxCell id="uPSDg4g8-I4lnqD0Hp03-39" style="edgeStyle=orthogonalEdgeStyle;rounded=0;orthogonalLoop=1;jettySize=auto;html=1;" edge="1" parent="1" source="uPSDg4g8-I4lnqD0Hp03-22" target="uPSDg4g8-I4lnqD0Hp03-37">
          <mxGeometry relative="1" as="geometry" />
        </mxCell>
        <mxCell id="uPSDg4g8-I4lnqD0Hp03-40" style="edgeStyle=orthogonalEdgeStyle;rounded=0;orthogonalLoop=1;jettySize=auto;html=1;" edge="1" parent="1" source="uPSDg4g8-I4lnqD0Hp03-22" target="uPSDg4g8-I4lnqD0Hp03-38">
          <mxGeometry relative="1" as="geometry">
            <Array as="points">
              <mxPoint x="190" y="260" />
              <mxPoint x="190" y="280" />
            </Array>
          </mxGeometry>
        </mxCell>
        <mxCell id="uPSDg4g8-I4lnqD0Hp03-22" value="&lt;pre&gt;.h&lt;/pre&gt;" style="rounded=0;whiteSpace=wrap;html=1;fillColor=#fad7ac;strokeColor=#b46504;" vertex="1" parent="1">
          <mxGeometry x="200" y="250" width="80" height="20" as="geometry" />
        </mxCell>
        <mxCell id="uPSDg4g8-I4lnqD0Hp03-23" value="&lt;pre&gt;.cpp&lt;/pre&gt;" style="rounded=0;whiteSpace=wrap;html=1;fillColor=#b1ddf0;strokeColor=#10739e;" vertex="1" parent="1">
          <mxGeometry x="90" y="120" width="80" height="20" as="geometry" />
        </mxCell>
        <mxCell id="uPSDg4g8-I4lnqD0Hp03-24" value="&lt;pre&gt;.cpp&lt;/pre&gt;" style="rounded=0;whiteSpace=wrap;html=1;fillColor=#b1ddf0;strokeColor=#10739e;" vertex="1" parent="1">
          <mxGeometry x="90" y="190" width="80" height="20" as="geometry" />
        </mxCell>
        <mxCell id="uPSDg4g8-I4lnqD0Hp03-25" value="&lt;pre&gt;.cpp&lt;/pre&gt;" style="rounded=0;whiteSpace=wrap;html=1;fillColor=#b1ddf0;strokeColor=#10739e;" vertex="1" parent="1">
          <mxGeometry x="90" y="230" width="80" height="20" as="geometry" />
        </mxCell>
        <mxCell id="uPSDg4g8-I4lnqD0Hp03-26" value="&lt;pre&gt;.cpp&lt;br/&gt;(main)&lt;/pre&gt;" style="rounded=0;whiteSpace=wrap;html=1;fillColor=#b1ddf0;strokeColor=#10739e;" vertex="1" parent="1">
          <mxGeometry x="320" y="270" width="80" height="40" as="geometry" />
        </mxCell>
        <mxCell id="uPSDg4g8-I4lnqD0Hp03-35" value="&lt;pre&gt;.cpp&lt;/pre&gt;" style="rounded=0;whiteSpace=wrap;html=1;fillColor=#b1ddf0;strokeColor=#10739e;" vertex="1" parent="1">
          <mxGeometry x="90" y="140" width="80" height="20" as="geometry" />
        </mxCell>
        <mxCell id="uPSDg4g8-I4lnqD0Hp03-37" value="&lt;pre&gt;.cpp&lt;/pre&gt;" style="rounded=0;whiteSpace=wrap;html=1;fillColor=#b1ddf0;strokeColor=#10739e;" vertex="1" parent="1">
          <mxGeometry x="90" y="250" width="80" height="20" as="geometry" />
        </mxCell>
        <mxCell id="uPSDg4g8-I4lnqD0Hp03-38" value="&lt;pre&gt;.cpp&lt;/pre&gt;" style="rounded=0;whiteSpace=wrap;html=1;fillColor=#b1ddf0;strokeColor=#10739e;" vertex="1" parent="1">
          <mxGeometry x="90" y="270" width="80" height="20" as="geometry" />
        </mxCell>
        <mxCell id="uPSDg4g8-I4lnqD0Hp03-47" style="edgeStyle=orthogonalEdgeStyle;rounded=0;orthogonalLoop=1;jettySize=auto;html=1;" edge="1" parent="1" source="uPSDg4g8-I4lnqD0Hp03-43" target="uPSDg4g8-I4lnqD0Hp03-26">
          <mxGeometry relative="1" as="geometry">
            <Array as="points">
              <mxPoint x="300" y="330" />
              <mxPoint x="300" y="290" />
            </Array>
          </mxGeometry>
        </mxCell>
        <mxCell id="uPSDg4g8-I4lnqD0Hp03-50" style="edgeStyle=orthogonalEdgeStyle;rounded=0;orthogonalLoop=1;jettySize=auto;html=1;" edge="1" parent="1" source="uPSDg4g8-I4lnqD0Hp03-43" target="uPSDg4g8-I4lnqD0Hp03-48">
          <mxGeometry relative="1" as="geometry">
            <Array as="points">
              <mxPoint x="190" y="330" />
              <mxPoint x="190" y="320" />
            </Array>
          </mxGeometry>
        </mxCell>
        <mxCell id="uPSDg4g8-I4lnqD0Hp03-51" style="edgeStyle=orthogonalEdgeStyle;rounded=0;orthogonalLoop=1;jettySize=auto;html=1;" edge="1" parent="1" source="uPSDg4g8-I4lnqD0Hp03-43" target="uPSDg4g8-I4lnqD0Hp03-49">
          <mxGeometry relative="1" as="geometry">
            <Array as="points">
              <mxPoint x="190" y="330" />
              <mxPoint x="190" y="340" />
            </Array>
          </mxGeometry>
        </mxCell>
        <mxCell id="uPSDg4g8-I4lnqD0Hp03-43" value="&lt;pre&gt;.h&lt;/pre&gt;" style="rounded=0;whiteSpace=wrap;html=1;fillColor=#fad7ac;strokeColor=#b46504;" vertex="1" parent="1">
          <mxGeometry x="200" y="320" width="80" height="20" as="geometry" />
        </mxCell>
        <mxCell id="uPSDg4g8-I4lnqD0Hp03-48" value="&lt;pre&gt;.cpp&lt;/pre&gt;" style="rounded=0;whiteSpace=wrap;html=1;fillColor=#b1ddf0;strokeColor=#10739e;" vertex="1" parent="1">
          <mxGeometry x="90" y="310" width="80" height="20" as="geometry" />
        </mxCell>
        <mxCell id="uPSDg4g8-I4lnqD0Hp03-49" value="&lt;pre&gt;.cpp&lt;/pre&gt;" style="rounded=0;whiteSpace=wrap;html=1;fillColor=#b1ddf0;strokeColor=#10739e;" vertex="1" parent="1">
          <mxGeometry x="90" y="330" width="80" height="20" as="geometry" />
        </mxCell>
      </root>
    </mxGraphModel>
  </diagram>
</mxfile>
